<?xml version="1.0" encoding="UTF-8"?>
<svg xmlns="http://www.w3.org/2000/svg"
     viewBox="0 0 800 400" role="img"
     width="100%" height="400" preserveAspectRatio="xMidYMid meet"
     aria-label="Altimetría de la ruta Ruta de La Alberca y Las Batuecas">
  <title>Altimetría - Ruta de La Alberca y Las Batuecas</title>
  <desc>Perfil de alturas de la ruta Ruta de La Alberca y Las Batuecas, distancia total 22.5 km</desc>

  <!-- Fondo -->
  <rect width="100%" height="100%" fill="#f8f8f0" stroke="#ccc"/>

  <!-- Título -->
  <text x="400" y="20" text-anchor="middle"
        font-family="Georgia, serif" font-size="14" font-weight="bold" fill="#8b1a1a">
    Altimetría - Ruta de La Alberca y Las Batuecas
  </text>

  <!-- Cuadrícula y eje Y (altitud en metros) -->
  <line x1="80" y1="309.7" x2="770" y2="309.7" stroke="#ddd" stroke-width="1"/>
  <text x="72" y="313.7" text-anchor="end" font-family="Arial, sans-serif" font-size="11" fill="#555">600 m</text>
  <line x1="80" y1="286.8" x2="770" y2="286.8" stroke="#ddd" stroke-width="1"/>
  <text x="72" y="290.8" text-anchor="end" font-family="Arial, sans-serif" font-size="11" fill="#555">700 m</text>
  <line x1="80" y1="264.0" x2="770" y2="264.0" stroke="#ddd" stroke-width="1"/>
  <text x="72" y="268.0" text-anchor="end" font-family="Arial, sans-serif" font-size="11" fill="#555">800 m</text>
  <line x1="80" y1="241.1" x2="770" y2="241.1" stroke="#ddd" stroke-width="1"/>
  <text x="72" y="245.1" text-anchor="end" font-family="Arial, sans-serif" font-size="11" fill="#555">900 m</text>
  <line x1="80" y1="218.2" x2="770" y2="218.2" stroke="#ddd" stroke-width="1"/>
  <text x="72" y="222.2" text-anchor="end" font-family="Arial, sans-serif" font-size="11" fill="#555">1000 m</text>
  <line x1="80" y1="195.4" x2="770" y2="195.4" stroke="#ddd" stroke-width="1"/>
  <text x="72" y="199.4" text-anchor="end" font-family="Arial, sans-serif" font-size="11" fill="#555">1100 m</text>
  <line x1="80" y1="172.5" x2="770" y2="172.5" stroke="#ddd" stroke-width="1"/>
  <text x="72" y="176.5" text-anchor="end" font-family="Arial, sans-serif" font-size="11" fill="#555">1200 m</text>
  <line x1="80" y1="149.6" x2="770" y2="149.6" stroke="#ddd" stroke-width="1"/>
  <text x="72" y="153.6" text-anchor="end" font-family="Arial, sans-serif" font-size="11" fill="#555">1300 m</text>
  <line x1="80" y1="126.7" x2="770" y2="126.7" stroke="#ddd" stroke-width="1"/>
  <text x="72" y="130.7" text-anchor="end" font-family="Arial, sans-serif" font-size="11" fill="#555">1400 m</text>
  <line x1="80" y1="103.9" x2="770" y2="103.9" stroke="#ddd" stroke-width="1"/>
  <text x="72" y="107.9" text-anchor="end" font-family="Arial, sans-serif" font-size="11" fill="#555">1500 m</text>
  <line x1="80" y1="81.0" x2="770" y2="81.0" stroke="#ddd" stroke-width="1"/>
  <text x="72" y="85.0" text-anchor="end" font-family="Arial, sans-serif" font-size="11" fill="#555">1600 m</text>
  <line x1="80" y1="58.1" x2="770" y2="58.1" stroke="#ddd" stroke-width="1"/>
  <text x="72" y="62.1" text-anchor="end" font-family="Arial, sans-serif" font-size="11" fill="#555">1700 m</text>
  <line x1="80" y1="35.3" x2="770" y2="35.3" stroke="#ddd" stroke-width="1"/>
  <text x="72" y="39.3" text-anchor="end" font-family="Arial, sans-serif" font-size="11" fill="#555">1800 m</text>

  <!-- Eje Y – etiqueta vertical -->
  <text x="15" y="175" text-anchor="middle" font-family="Arial, sans-serif" font-size="12" fill="#333" transform="rotate(-90, 15, 175)">
    Altitud (m)
  </text>

  <!-- Eje X (distancia en km) y marcas -->
  <line x1="80.0" y1="320" x2="80.0" y2="325" stroke="#333" stroke-width="1"/>
  <text x="80.0" y="338" text-anchor="middle" font-family="Arial, sans-serif" font-size="11" fill="#555">0.0</text>
  <line x1="149.0" y1="320" x2="149.0" y2="325" stroke="#333" stroke-width="1"/>
  <text x="149.0" y="338" text-anchor="middle" font-family="Arial, sans-serif" font-size="11" fill="#555">2.2</text>
  <line x1="218.0" y1="320" x2="218.0" y2="325" stroke="#333" stroke-width="1"/>
  <text x="218.0" y="338" text-anchor="middle" font-family="Arial, sans-serif" font-size="11" fill="#555">4.5</text>
  <line x1="287.0" y1="320" x2="287.0" y2="325" stroke="#333" stroke-width="1"/>
  <text x="287.0" y="338" text-anchor="middle" font-family="Arial, sans-serif" font-size="11" fill="#555">6.8</text>
  <line x1="356.0" y1="320" x2="356.0" y2="325" stroke="#333" stroke-width="1"/>
  <text x="356.0" y="338" text-anchor="middle" font-family="Arial, sans-serif" font-size="11" fill="#555">9.0</text>
  <line x1="425.0" y1="320" x2="425.0" y2="325" stroke="#333" stroke-width="1"/>
  <text x="425.0" y="338" text-anchor="middle" font-family="Arial, sans-serif" font-size="11" fill="#555">11.2</text>
  <line x1="494.0" y1="320" x2="494.0" y2="325" stroke="#333" stroke-width="1"/>
  <text x="494.0" y="338" text-anchor="middle" font-family="Arial, sans-serif" font-size="11" fill="#555">13.5</text>
  <line x1="563.0" y1="320" x2="563.0" y2="325" stroke="#333" stroke-width="1"/>
  <text x="563.0" y="338" text-anchor="middle" font-family="Arial, sans-serif" font-size="11" fill="#555">15.8</text>
  <line x1="632.0" y1="320" x2="632.0" y2="325" stroke="#333" stroke-width="1"/>
  <text x="632.0" y="338" text-anchor="middle" font-family="Arial, sans-serif" font-size="11" fill="#555">18.0</text>
  <line x1="701.0" y1="320" x2="701.0" y2="325" stroke="#333" stroke-width="1"/>
  <text x="701.0" y="338" text-anchor="middle" font-family="Arial, sans-serif" font-size="11" fill="#555">20.2</text>
  <line x1="770.0" y1="320" x2="770.0" y2="325" stroke="#333" stroke-width="1"/>
  <text x="770.0" y="338" text-anchor="middle" font-family="Arial, sans-serif" font-size="11" fill="#555">22.5</text>
  <text x="425" y="390" text-anchor="middle" font-family="Arial, sans-serif" font-size="12" fill="#333">Distancia (km)</text>

  <!-- Ejes principales -->
  <line x1="80" y1="30" x2="80" y2="320" stroke="#333" stroke-width="2"/>
  <line x1="80" y1="320" x2="770" y2="320" stroke="#333" stroke-width="2"/>

  <!-- Perfil de altimetría: polilínea cerrada -->
  <polygon points="80.0,207.2 80.0,207.2 264.0,52.9 432.7,298.3 524.7,308.6 770.0,259.4 770.0,320.0 80.0,320.0"
           fill="rgba(139,26,26,0.2)" stroke="#8b1a1a" stroke-width="2"/>

  <!-- Hitos con etiquetas -->
  <circle cx="80.0" cy="207.2" r="5" fill="#8b1a1a" stroke="white" stroke-width="1.5"/>
  <text x="80.0" y="197.2" text-anchor="middle"
        font-family="Arial, sans-serif" font-size="10" fill="#333">
    Plaza Pública de La …
  </text>
  <circle cx="80.0" cy="207.2" r="5" fill="#8b1a1a" stroke="white" stroke-width="1.5"/>
  <text x="80.0" y="197.2" text-anchor="middle"
        font-family="Arial, sans-serif" font-size="10" fill="#333">
    Plaza Pública de La …
  </text>
  <circle cx="264.0" cy="52.9" r="5" fill="#8b1a1a" stroke="white" stroke-width="1.5"/>
  <text x="264.0" y="42.9" text-anchor="middle"
        font-family="Arial, sans-serif" font-size="10" fill="#333">
    Santuario Peña de Fr…
  </text>
  <circle cx="432.7" cy="298.3" r="5" fill="#8b1a1a" stroke="white" stroke-width="1.5"/>
  <text x="432.7" y="288.3" text-anchor="middle"
        font-family="Arial, sans-serif" font-size="10" fill="#333">
    Pinturas Rupestres d…
  </text>
  <circle cx="524.7" cy="308.6" r="5" fill="#8b1a1a" stroke="white" stroke-width="1.5"/>
  <text x="524.7" y="298.6" text-anchor="middle"
        font-family="Arial, sans-serif" font-size="10" fill="#333">
    Valle de Las Batueca…
  </text>
  <circle cx="770.0" cy="259.4" r="5" fill="#8b1a1a" stroke="white" stroke-width="1.5"/>
  <text x="770.0" y="249.4" text-anchor="middle"
        font-family="Arial, sans-serif" font-size="10" fill="#333">
    Mogarraz
  </text>
</svg>