<?xml version="1.0" encoding="UTF-8"?>
<svg xmlns="http://www.w3.org/2000/svg"
     viewBox="0 0 800 400" role="img"
     width="100%" height="400" preserveAspectRatio="xMidYMid meet"
     aria-label="Altimetría de la ruta Ruta de los Arribes del Duero">
  <title>Altimetría - Ruta de los Arribes del Duero</title>
  <desc>Perfil de alturas de la ruta Ruta de los Arribes del Duero, distancia total 45.5 km</desc>

  <!-- Fondo -->
  <rect width="100%" height="100%" fill="#f8f8f0" stroke="#ccc"/>

  <!-- Título -->
  <text x="400" y="20" text-anchor="middle"
        font-family="Georgia, serif" font-size="14" font-weight="bold" fill="#8b1a1a">
    Altimetría - Ruta de los Arribes del Duero
  </text>

  <!-- Cuadrícula y eje Y (altitud en metros) -->
  <line x1="80" y1="317.2" x2="770" y2="317.2" stroke="#ddd" stroke-width="1"/>
  <text x="72" y="321.2" text-anchor="end" font-family="Arial, sans-serif" font-size="11" fill="#555">300 m</text>
  <line x1="80" y1="261.2" x2="770" y2="261.2" stroke="#ddd" stroke-width="1"/>
  <text x="72" y="265.2" text-anchor="end" font-family="Arial, sans-serif" font-size="11" fill="#555">400 m</text>
  <line x1="80" y1="205.2" x2="770" y2="205.2" stroke="#ddd" stroke-width="1"/>
  <text x="72" y="209.2" text-anchor="end" font-family="Arial, sans-serif" font-size="11" fill="#555">500 m</text>
  <line x1="80" y1="149.2" x2="770" y2="149.2" stroke="#ddd" stroke-width="1"/>
  <text x="72" y="153.2" text-anchor="end" font-family="Arial, sans-serif" font-size="11" fill="#555">600 m</text>
  <line x1="80" y1="93.3" x2="770" y2="93.3" stroke="#ddd" stroke-width="1"/>
  <text x="72" y="97.3" text-anchor="end" font-family="Arial, sans-serif" font-size="11" fill="#555">700 m</text>
  <line x1="80" y1="37.3" x2="770" y2="37.3" stroke="#ddd" stroke-width="1"/>
  <text x="72" y="41.3" text-anchor="end" font-family="Arial, sans-serif" font-size="11" fill="#555">800 m</text>

  <!-- Eje Y - etiqueta vertical -->
  <text x="15" y="175" text-anchor="middle" font-family="Arial, sans-serif" font-size="12" fill="#333" transform="rotate(-90, 15, 175)">
    Altitud (m)
  </text>

  <!-- Eje X (distancia en km) y marcas -->
  <line x1="80.0" y1="320" x2="80.0" y2="325" stroke="#333" stroke-width="1"/>
  <text x="80.0" y="338" text-anchor="middle" font-family="Arial, sans-serif" font-size="11" fill="#555">0.0</text>
  <line x1="149.0" y1="320" x2="149.0" y2="325" stroke="#333" stroke-width="1"/>
  <text x="149.0" y="338" text-anchor="middle" font-family="Arial, sans-serif" font-size="11" fill="#555">4.5</text>
  <line x1="218.0" y1="320" x2="218.0" y2="325" stroke="#333" stroke-width="1"/>
  <text x="218.0" y="338" text-anchor="middle" font-family="Arial, sans-serif" font-size="11" fill="#555">9.1</text>
  <line x1="287.0" y1="320" x2="287.0" y2="325" stroke="#333" stroke-width="1"/>
  <text x="287.0" y="338" text-anchor="middle" font-family="Arial, sans-serif" font-size="11" fill="#555">13.6</text>
  <line x1="356.0" y1="320" x2="356.0" y2="325" stroke="#333" stroke-width="1"/>
  <text x="356.0" y="338" text-anchor="middle" font-family="Arial, sans-serif" font-size="11" fill="#555">18.2</text>
  <line x1="425.0" y1="320" x2="425.0" y2="325" stroke="#333" stroke-width="1"/>
  <text x="425.0" y="338" text-anchor="middle" font-family="Arial, sans-serif" font-size="11" fill="#555">22.8</text>
  <line x1="494.0" y1="320" x2="494.0" y2="325" stroke="#333" stroke-width="1"/>
  <text x="494.0" y="338" text-anchor="middle" font-family="Arial, sans-serif" font-size="11" fill="#555">27.3</text>
  <line x1="563.0" y1="320" x2="563.0" y2="325" stroke="#333" stroke-width="1"/>
  <text x="563.0" y="338" text-anchor="middle" font-family="Arial, sans-serif" font-size="11" fill="#555">31.8</text>
  <line x1="632.0" y1="320" x2="632.0" y2="325" stroke="#333" stroke-width="1"/>
  <text x="632.0" y="338" text-anchor="middle" font-family="Arial, sans-serif" font-size="11" fill="#555">36.4</text>
  <line x1="701.0" y1="320" x2="701.0" y2="325" stroke="#333" stroke-width="1"/>
  <text x="701.0" y="338" text-anchor="middle" font-family="Arial, sans-serif" font-size="11" fill="#555">40.9</text>
  <line x1="770.0" y1="320" x2="770.0" y2="325" stroke="#333" stroke-width="1"/>
  <text x="770.0" y="338" text-anchor="middle" font-family="Arial, sans-serif" font-size="11" fill="#555">45.5</text>
  <text x="425" y="390" text-anchor="middle" font-family="Arial, sans-serif" font-size="12" fill="#333">Distancia (km)</text>

  <!-- Ejes principales -->
  <line x1="80" y1="30" x2="80" y2="320" stroke="#333" stroke-width="2"/>
  <line x1="80" y1="320" x2="770" y2="320" stroke="#333" stroke-width="2"/>

  <!-- Perfil de altimetría: polilínea cerrada -->
  <polygon points="80.0,121.3 80.0,121.3 125.5,221.5 224.1,88.2 466.7,86.0 770.0,292.0 770.0,320.0 80.0,320.0"
           fill="rgba(139,26,26,0.2)" stroke="#8b1a1a" stroke-width="2"/>

  <!-- Hitos con etiquetas -->
  <circle cx="80.0" cy="121.3" r="5" fill="#8b1a1a" stroke="white" stroke-width="1.5"/>
  <text x="80.0" y="111.3" text-anchor="middle"
        font-family="Arial, sans-serif" font-size="10" fill="#333">
    Mirador Monte del Pu…
  </text>
  <circle cx="80.0" cy="121.3" r="5" fill="#8b1a1a" stroke="white" stroke-width="1.5"/>
  <text x="80.0" y="111.3" text-anchor="middle"
        font-family="Arial, sans-serif" font-size="10" fill="#333">
    Mirador Monte del Pu…
  </text>
  <circle cx="125.5" cy="221.5" r="5" fill="#8b1a1a" stroke="white" stroke-width="1.5"/>
  <text x="125.5" y="211.5" text-anchor="middle"
        font-family="Arial, sans-serif" font-size="10" fill="#333">
    Mirador del Picón de…
  </text>
  <circle cx="224.1" cy="88.2" r="5" fill="#8b1a1a" stroke="white" stroke-width="1.5"/>
  <text x="224.1" y="78.2" text-anchor="middle"
        font-family="Arial, sans-serif" font-size="10" fill="#333">
    Corporario
  </text>
  <circle cx="466.7" cy="86.0" r="5" fill="#8b1a1a" stroke="white" stroke-width="1.5"/>
  <text x="466.7" y="76.0" text-anchor="middle"
        font-family="Arial, sans-serif" font-size="10" fill="#333">
    Vilvestre
  </text>
  <circle cx="770.0" cy="292.0" r="5" fill="#8b1a1a" stroke="white" stroke-width="1.5"/>
  <text x="770.0" y="282.0" text-anchor="middle"
        font-family="Arial, sans-serif" font-size="10" fill="#333">
    Mirador de Mafeito
  </text>
</svg>