<?xml version="1.0" encoding="UTF-8"?>
<svg xmlns="http://www.w3.org/2000/svg" width="800" height="400"
     viewBox="0 0 800 400" role="img"
     aria-label="Altimetría de la ruta Ruta de La Alberca y Las Batuecas">
  <title>Altimetría – Ruta de La Alberca y Las Batuecas</title>
  <desc>Perfil de alturas de la ruta Ruta de La Alberca y Las Batuecas, distancia total 23.0 km</desc>

  <!-- Fondo -->
  <rect width="800" height="400" fill="#f8f8f0" stroke="#ccc"/>

  <!-- Título -->
  <text x="400" y="20" text-anchor="middle"
        font-family="Georgia, serif" font-size="14" font-weight="bold" fill="#8b1a1a">
    Altimetría – Ruta de La Alberca y Las Batuecas
  </text>

  <!-- Cuadrícula y eje Y (altitud en metros) -->
  <line x1="80" y1="303.0" x2="770" y2="303.0" stroke="#ddd" stroke-width="1"/>
  <text x="72" y="307.0" text-anchor="end" font-family="Arial, sans-serif" font-size="11" fill="#555">700 m</text>
  <line x1="80" y1="278.7" x2="770" y2="278.7" stroke="#ddd" stroke-width="1"/>
  <text x="72" y="282.7" text-anchor="end" font-family="Arial, sans-serif" font-size="11" fill="#555">800 m</text>
  <line x1="80" y1="254.4" x2="770" y2="254.4" stroke="#ddd" stroke-width="1"/>
  <text x="72" y="258.4" text-anchor="end" font-family="Arial, sans-serif" font-size="11" fill="#555">900 m</text>
  <line x1="80" y1="230.1" x2="770" y2="230.1" stroke="#ddd" stroke-width="1"/>
  <text x="72" y="234.1" text-anchor="end" font-family="Arial, sans-serif" font-size="11" fill="#555">1000 m</text>
  <line x1="80" y1="205.8" x2="770" y2="205.8" stroke="#ddd" stroke-width="1"/>
  <text x="72" y="209.8" text-anchor="end" font-family="Arial, sans-serif" font-size="11" fill="#555">1100 m</text>
  <line x1="80" y1="181.4" x2="770" y2="181.4" stroke="#ddd" stroke-width="1"/>
  <text x="72" y="185.4" text-anchor="end" font-family="Arial, sans-serif" font-size="11" fill="#555">1200 m</text>
  <line x1="80" y1="157.1" x2="770" y2="157.1" stroke="#ddd" stroke-width="1"/>
  <text x="72" y="161.1" text-anchor="end" font-family="Arial, sans-serif" font-size="11" fill="#555">1300 m</text>
  <line x1="80" y1="132.8" x2="770" y2="132.8" stroke="#ddd" stroke-width="1"/>
  <text x="72" y="136.8" text-anchor="end" font-family="Arial, sans-serif" font-size="11" fill="#555">1400 m</text>
  <line x1="80" y1="108.5" x2="770" y2="108.5" stroke="#ddd" stroke-width="1"/>
  <text x="72" y="112.5" text-anchor="end" font-family="Arial, sans-serif" font-size="11" fill="#555">1500 m</text>
  <line x1="80" y1="84.2" x2="770" y2="84.2" stroke="#ddd" stroke-width="1"/>
  <text x="72" y="88.2" text-anchor="end" font-family="Arial, sans-serif" font-size="11" fill="#555">1600 m</text>
  <line x1="80" y1="59.9" x2="770" y2="59.9" stroke="#ddd" stroke-width="1"/>
  <text x="72" y="63.9" text-anchor="end" font-family="Arial, sans-serif" font-size="11" fill="#555">1700 m</text>
  <line x1="80" y1="35.6" x2="770" y2="35.6" stroke="#ddd" stroke-width="1"/>
  <text x="72" y="39.6" text-anchor="end" font-family="Arial, sans-serif" font-size="11" fill="#555">1800 m</text>

  <!-- Eje Y – etiqueta vertical -->
  <text x="15" y="175" text-anchor="middle" font-family="Arial, sans-serif" font-size="12" fill="#333" transform="rotate(-90, 15, 175)">
    Altitud (m)
  </text>

  <!-- Eje X (distancia en km) y marcas -->
  <line x1="80.0" y1="320" x2="80.0" y2="325" stroke="#333" stroke-width="1"/>
  <text x="80.0" y="338" text-anchor="middle" font-family="Arial, sans-serif" font-size="11" fill="#555">0.0</text>
  <line x1="149.0" y1="320" x2="149.0" y2="325" stroke="#333" stroke-width="1"/>
  <text x="149.0" y="338" text-anchor="middle" font-family="Arial, sans-serif" font-size="11" fill="#555">2.3</text>
  <line x1="218.0" y1="320" x2="218.0" y2="325" stroke="#333" stroke-width="1"/>
  <text x="218.0" y="338" text-anchor="middle" font-family="Arial, sans-serif" font-size="11" fill="#555">4.6</text>
  <line x1="287.0" y1="320" x2="287.0" y2="325" stroke="#333" stroke-width="1"/>
  <text x="287.0" y="338" text-anchor="middle" font-family="Arial, sans-serif" font-size="11" fill="#555">6.9</text>
  <line x1="356.0" y1="320" x2="356.0" y2="325" stroke="#333" stroke-width="1"/>
  <text x="356.0" y="338" text-anchor="middle" font-family="Arial, sans-serif" font-size="11" fill="#555">9.2</text>
  <line x1="425.0" y1="320" x2="425.0" y2="325" stroke="#333" stroke-width="1"/>
  <text x="425.0" y="338" text-anchor="middle" font-family="Arial, sans-serif" font-size="11" fill="#555">11.5</text>
  <line x1="494.0" y1="320" x2="494.0" y2="325" stroke="#333" stroke-width="1"/>
  <text x="494.0" y="338" text-anchor="middle" font-family="Arial, sans-serif" font-size="11" fill="#555">13.8</text>
  <line x1="563.0" y1="320" x2="563.0" y2="325" stroke="#333" stroke-width="1"/>
  <text x="563.0" y="338" text-anchor="middle" font-family="Arial, sans-serif" font-size="11" fill="#555">16.1</text>
  <line x1="632.0" y1="320" x2="632.0" y2="325" stroke="#333" stroke-width="1"/>
  <text x="632.0" y="338" text-anchor="middle" font-family="Arial, sans-serif" font-size="11" fill="#555">18.4</text>
  <line x1="701.0" y1="320" x2="701.0" y2="325" stroke="#333" stroke-width="1"/>
  <text x="701.0" y="338" text-anchor="middle" font-family="Arial, sans-serif" font-size="11" fill="#555">20.7</text>
  <line x1="770.0" y1="320" x2="770.0" y2="325" stroke="#333" stroke-width="1"/>
  <text x="770.0" y="338" text-anchor="middle" font-family="Arial, sans-serif" font-size="11" fill="#555">23.0</text>
  <text x="425" y="390" text-anchor="middle" font-family="Arial, sans-serif" font-size="12" fill="#333">Distancia (km)</text>

  <!-- Ejes principales -->
  <line x1="80" y1="30" x2="80" y2="320" stroke="#333" stroke-width="2"/>
  <line x1="80" y1="320" x2="770" y2="320" stroke="#333" stroke-width="2"/>

  <!-- Perfil de altimetría: polilínea cerrada -->
  <polygon points="80.0,218.4 80.0,218.4 260.0,54.3 500.0,307.8 560.0,303.0 770.0,273.8 770.0,320.0 80.0,320.0"
           fill="rgba(139,26,26,0.2)" stroke="#8b1a1a" stroke-width="2"/>

  <!-- Hitos con etiquetas -->
  <circle cx="80.0" cy="218.4" r="5" fill="#8b1a1a" stroke="white" stroke-width="1.5"/>
  <text x="80.0" y="208.4" text-anchor="middle"
        font-family="Arial, sans-serif" font-size="10" fill="#333">
    Plaza Pública de La …
  </text>
  <circle cx="80.0" cy="218.4" r="5" fill="#8b1a1a" stroke="white" stroke-width="1.5"/>
  <text x="80.0" y="208.4" text-anchor="middle"
        font-family="Arial, sans-serif" font-size="10" fill="#333">
    Plaza Pública de La …
  </text>
  <circle cx="260.0" cy="54.3" r="5" fill="#8b1a1a" stroke="white" stroke-width="1.5"/>
  <text x="260.0" y="44.3" text-anchor="middle"
        font-family="Arial, sans-serif" font-size="10" fill="#333">
    Ermita de la Virgen …
  </text>
  <circle cx="500.0" cy="307.8" r="5" fill="#8b1a1a" stroke="white" stroke-width="1.5"/>
  <text x="500.0" y="297.8" text-anchor="middle"
        font-family="Arial, sans-serif" font-size="10" fill="#333">
    Valle de Las Batueca…
  </text>
  <circle cx="560.0" cy="303.0" r="5" fill="#8b1a1a" stroke="white" stroke-width="1.5"/>
  <text x="560.0" y="293.0" text-anchor="middle"
        font-family="Arial, sans-serif" font-size="10" fill="#333">
    Pinturas Rupestres d…
  </text>
  <circle cx="770.0" cy="273.8" r="5" fill="#8b1a1a" stroke="white" stroke-width="1.5"/>
  <text x="770.0" y="263.8" text-anchor="middle"
        font-family="Arial, sans-serif" font-size="10" fill="#333">
    Mogarraz
  </text>
</svg>