<?xml version="1.0" encoding="UTF-8"?>
<svg xmlns="http://www.w3.org/2000/svg"
     viewBox="0 0 800 400" role="img"
     width="100%" height="auto" preserveAspectRatio="xMidYMid meet"
     aria-label="Altimetría de la ruta Ruta de los Arribes del Duero">
  <title>Altimetría – Ruta de los Arribes del Duero</title>
  <desc>Perfil de alturas de la ruta Ruta de los Arribes del Duero, distancia total 64.0 km</desc>

  <!-- Fondo -->
  <rect width="100%" height="100%" fill="#f8f8f0" stroke="#ccc"/>

  <!-- Título -->
  <text x="400" y="20" text-anchor="middle"
        font-family="Georgia, serif" font-size="14" font-weight="bold" fill="#8b1a1a">
    Altimetría – Ruta de los Arribes del Duero
  </text>

  <!-- Cuadrícula y eje Y (altitud en metros) -->
  <line x1="80" y1="304.2" x2="770" y2="304.2" stroke="#ddd" stroke-width="1"/>
  <text x="72" y="308.2" text-anchor="end" font-family="Arial, sans-serif" font-size="11" fill="#555">300 m</text>
  <line x1="80" y1="251.5" x2="770" y2="251.5" stroke="#ddd" stroke-width="1"/>
  <text x="72" y="255.5" text-anchor="end" font-family="Arial, sans-serif" font-size="11" fill="#555">400 m</text>
  <line x1="80" y1="198.7" x2="770" y2="198.7" stroke="#ddd" stroke-width="1"/>
  <text x="72" y="202.7" text-anchor="end" font-family="Arial, sans-serif" font-size="11" fill="#555">500 m</text>
  <line x1="80" y1="146.0" x2="770" y2="146.0" stroke="#ddd" stroke-width="1"/>
  <text x="72" y="150.0" text-anchor="end" font-family="Arial, sans-serif" font-size="11" fill="#555">600 m</text>
  <line x1="80" y1="93.3" x2="770" y2="93.3" stroke="#ddd" stroke-width="1"/>
  <text x="72" y="97.3" text-anchor="end" font-family="Arial, sans-serif" font-size="11" fill="#555">700 m</text>
  <line x1="80" y1="40.5" x2="770" y2="40.5" stroke="#ddd" stroke-width="1"/>
  <text x="72" y="44.5" text-anchor="end" font-family="Arial, sans-serif" font-size="11" fill="#555">800 m</text>

  <!-- Eje Y – etiqueta vertical -->
  <text x="15" y="175" text-anchor="middle" font-family="Arial, sans-serif" font-size="12" fill="#333" transform="rotate(-90, 15, 175)">
    Altitud (m)
  </text>

  <!-- Eje X (distancia en km) y marcas -->
  <line x1="80.0" y1="320" x2="80.0" y2="325" stroke="#333" stroke-width="1"/>
  <text x="80.0" y="338" text-anchor="middle" font-family="Arial, sans-serif" font-size="11" fill="#555">0.0</text>
  <line x1="149.0" y1="320" x2="149.0" y2="325" stroke="#333" stroke-width="1"/>
  <text x="149.0" y="338" text-anchor="middle" font-family="Arial, sans-serif" font-size="11" fill="#555">6.4</text>
  <line x1="218.0" y1="320" x2="218.0" y2="325" stroke="#333" stroke-width="1"/>
  <text x="218.0" y="338" text-anchor="middle" font-family="Arial, sans-serif" font-size="11" fill="#555">12.8</text>
  <line x1="287.0" y1="320" x2="287.0" y2="325" stroke="#333" stroke-width="1"/>
  <text x="287.0" y="338" text-anchor="middle" font-family="Arial, sans-serif" font-size="11" fill="#555">19.2</text>
  <line x1="356.0" y1="320" x2="356.0" y2="325" stroke="#333" stroke-width="1"/>
  <text x="356.0" y="338" text-anchor="middle" font-family="Arial, sans-serif" font-size="11" fill="#555">25.6</text>
  <line x1="425.0" y1="320" x2="425.0" y2="325" stroke="#333" stroke-width="1"/>
  <text x="425.0" y="338" text-anchor="middle" font-family="Arial, sans-serif" font-size="11" fill="#555">32.0</text>
  <line x1="494.0" y1="320" x2="494.0" y2="325" stroke="#333" stroke-width="1"/>
  <text x="494.0" y="338" text-anchor="middle" font-family="Arial, sans-serif" font-size="11" fill="#555">38.4</text>
  <line x1="563.0" y1="320" x2="563.0" y2="325" stroke="#333" stroke-width="1"/>
  <text x="563.0" y="338" text-anchor="middle" font-family="Arial, sans-serif" font-size="11" fill="#555">44.8</text>
  <line x1="632.0" y1="320" x2="632.0" y2="325" stroke="#333" stroke-width="1"/>
  <text x="632.0" y="338" text-anchor="middle" font-family="Arial, sans-serif" font-size="11" fill="#555">51.2</text>
  <line x1="701.0" y1="320" x2="701.0" y2="325" stroke="#333" stroke-width="1"/>
  <text x="701.0" y="338" text-anchor="middle" font-family="Arial, sans-serif" font-size="11" fill="#555">57.6</text>
  <line x1="770.0" y1="320" x2="770.0" y2="325" stroke="#333" stroke-width="1"/>
  <text x="770.0" y="338" text-anchor="middle" font-family="Arial, sans-serif" font-size="11" fill="#555">64.0</text>
  <text x="425" y="390" text-anchor="middle" font-family="Arial, sans-serif" font-size="12" fill="#333">Distancia (km)</text>

  <!-- Ejes principales -->
  <line x1="80" y1="30" x2="80" y2="320" stroke="#333" stroke-width="2"/>
  <line x1="80" y1="320" x2="770" y2="320" stroke="#333" stroke-width="2"/>

  <!-- Perfil de altimetría: polilínea cerrada -->
  <polygon points="80.0,293.6 80.0,293.6 209.4,193.5 403.4,103.8 500.5,82.7 770.0,119.6 770.0,320.0 80.0,320.0"
           fill="rgba(139,26,26,0.2)" stroke="#8b1a1a" stroke-width="2"/>

  <!-- Hitos con etiquetas -->
  <circle cx="80.0" cy="293.6" r="5" fill="#8b1a1a" stroke="white" stroke-width="1.5"/>
  <text x="80.0" y="283.6" text-anchor="middle"
        font-family="Arial, sans-serif" font-size="10" fill="#333">
    Mirador de La Peña d…
  </text>
  <circle cx="80.0" cy="293.6" r="5" fill="#8b1a1a" stroke="white" stroke-width="1.5"/>
  <text x="80.0" y="283.6" text-anchor="middle"
        font-family="Arial, sans-serif" font-size="10" fill="#333">
    Mirador de la Presa …
  </text>
  <circle cx="209.4" cy="193.5" r="5" fill="#8b1a1a" stroke="white" stroke-width="1.5"/>
  <text x="209.4" y="183.5" text-anchor="middle"
        font-family="Arial, sans-serif" font-size="10" fill="#333">
    Vilvestre
  </text>
  <circle cx="403.4" cy="103.8" r="5" fill="#8b1a1a" stroke="white" stroke-width="1.5"/>
  <text x="403.4" y="93.8" text-anchor="middle"
        font-family="Arial, sans-serif" font-size="10" fill="#333">
    Mirador del Picón de…
  </text>
  <circle cx="500.5" cy="82.7" r="5" fill="#8b1a1a" stroke="white" stroke-width="1.5"/>
  <text x="500.5" y="72.7" text-anchor="middle"
        font-family="Arial, sans-serif" font-size="10" fill="#333">
    Corporario
  </text>
  <circle cx="770.0" cy="119.6" r="5" fill="#8b1a1a" stroke="white" stroke-width="1.5"/>
  <text x="770.0" y="109.6" text-anchor="middle"
        font-family="Arial, sans-serif" font-size="10" fill="#333">
    Mirador de la Fregen…
  </text>
</svg>